<mxfile host="app.diagrams.net" agent="Mozilla/5.0 (Windows NT 10.0; Win64; x64) AppleWebKit/537.36 (KHTML, like Gecko) Chrome/133.0.0.0 Safari/537.36" version="26.0.11">
  <diagram name="PÃ¡gina-1" id="NX2gMOwVnBS0EmzMO7Or">
    <mxGraphModel dx="2625" dy="1393" grid="1" gridSize="10" guides="1" tooltips="1" connect="1" arrows="1" fold="1" page="1" pageScale="1" pageWidth="827" pageHeight="1169" math="0" shadow="0">
      <root>
        <mxCell id="0" />
        <mxCell id="1" parent="0" />
        <mxCell id="wzYJ2r0seQuiLL_xnfaj-1" value="USUARIOS" style="shape=table;startSize=30;container=1;collapsible=1;childLayout=tableLayout;fixedRows=1;rowLines=0;fontStyle=1;align=center;resizeLast=1;html=1;" parent="1" vertex="1">
          <mxGeometry x="579.5" y="100" width="180" height="270" as="geometry" />
        </mxCell>
        <mxCell id="wzYJ2r0seQuiLL_xnfaj-2" value="" style="shape=tableRow;horizontal=0;startSize=0;swimlaneHead=0;swimlaneBody=0;fillColor=none;collapsible=0;dropTarget=0;points=[[0,0.5],[1,0.5]];portConstraint=eastwest;top=0;left=0;right=0;bottom=1;" parent="wzYJ2r0seQuiLL_xnfaj-1" vertex="1">
          <mxGeometry y="30" width="180" height="30" as="geometry" />
        </mxCell>
        <mxCell id="wzYJ2r0seQuiLL_xnfaj-3" value="PK" style="shape=partialRectangle;connectable=0;fillColor=none;top=0;left=0;bottom=0;right=0;fontStyle=1;overflow=hidden;whiteSpace=wrap;html=1;" parent="wzYJ2r0seQuiLL_xnfaj-2" vertex="1">
          <mxGeometry width="30" height="30" as="geometry">
            <mxRectangle width="30" height="30" as="alternateBounds" />
          </mxGeometry>
        </mxCell>
        <mxCell id="wzYJ2r0seQuiLL_xnfaj-4" value="idUsuario" style="shape=partialRectangle;connectable=0;fillColor=none;top=0;left=0;bottom=0;right=0;align=left;spacingLeft=6;fontStyle=5;overflow=hidden;whiteSpace=wrap;html=1;" parent="wzYJ2r0seQuiLL_xnfaj-2" vertex="1">
          <mxGeometry x="30" width="150" height="30" as="geometry">
            <mxRectangle width="150" height="30" as="alternateBounds" />
          </mxGeometry>
        </mxCell>
        <mxCell id="wzYJ2r0seQuiLL_xnfaj-5" value="" style="shape=tableRow;horizontal=0;startSize=0;swimlaneHead=0;swimlaneBody=0;fillColor=none;collapsible=0;dropTarget=0;points=[[0,0.5],[1,0.5]];portConstraint=eastwest;top=0;left=0;right=0;bottom=0;" parent="wzYJ2r0seQuiLL_xnfaj-1" vertex="1">
          <mxGeometry y="60" width="180" height="30" as="geometry" />
        </mxCell>
        <mxCell id="wzYJ2r0seQuiLL_xnfaj-6" value="" style="shape=partialRectangle;connectable=0;fillColor=none;top=0;left=0;bottom=0;right=0;editable=1;overflow=hidden;whiteSpace=wrap;html=1;" parent="wzYJ2r0seQuiLL_xnfaj-5" vertex="1">
          <mxGeometry width="30" height="30" as="geometry">
            <mxRectangle width="30" height="30" as="alternateBounds" />
          </mxGeometry>
        </mxCell>
        <mxCell id="wzYJ2r0seQuiLL_xnfaj-7" value="contrasena" style="shape=partialRectangle;connectable=0;fillColor=none;top=0;left=0;bottom=0;right=0;align=left;spacingLeft=6;overflow=hidden;whiteSpace=wrap;html=1;" parent="wzYJ2r0seQuiLL_xnfaj-5" vertex="1">
          <mxGeometry x="30" width="150" height="30" as="geometry">
            <mxRectangle width="150" height="30" as="alternateBounds" />
          </mxGeometry>
        </mxCell>
        <mxCell id="wzYJ2r0seQuiLL_xnfaj-8" value="" style="shape=tableRow;horizontal=0;startSize=0;swimlaneHead=0;swimlaneBody=0;fillColor=none;collapsible=0;dropTarget=0;points=[[0,0.5],[1,0.5]];portConstraint=eastwest;top=0;left=0;right=0;bottom=0;" parent="wzYJ2r0seQuiLL_xnfaj-1" vertex="1">
          <mxGeometry y="90" width="180" height="30" as="geometry" />
        </mxCell>
        <mxCell id="wzYJ2r0seQuiLL_xnfaj-9" value="" style="shape=partialRectangle;connectable=0;fillColor=none;top=0;left=0;bottom=0;right=0;editable=1;overflow=hidden;whiteSpace=wrap;html=1;" parent="wzYJ2r0seQuiLL_xnfaj-8" vertex="1">
          <mxGeometry width="30" height="30" as="geometry">
            <mxRectangle width="30" height="30" as="alternateBounds" />
          </mxGeometry>
        </mxCell>
        <mxCell id="wzYJ2r0seQuiLL_xnfaj-10" value="&lt;span style=&quot;text-align: center;&quot;&gt;nombreUsuario&lt;/span&gt;" style="shape=partialRectangle;connectable=0;fillColor=none;top=0;left=0;bottom=0;right=0;align=left;spacingLeft=6;overflow=hidden;whiteSpace=wrap;html=1;" parent="wzYJ2r0seQuiLL_xnfaj-8" vertex="1">
          <mxGeometry x="30" width="150" height="30" as="geometry">
            <mxRectangle width="150" height="30" as="alternateBounds" />
          </mxGeometry>
        </mxCell>
        <mxCell id="wzYJ2r0seQuiLL_xnfaj-11" value="" style="shape=tableRow;horizontal=0;startSize=0;swimlaneHead=0;swimlaneBody=0;fillColor=none;collapsible=0;dropTarget=0;points=[[0,0.5],[1,0.5]];portConstraint=eastwest;top=0;left=0;right=0;bottom=0;" parent="wzYJ2r0seQuiLL_xnfaj-1" vertex="1">
          <mxGeometry y="120" width="180" height="30" as="geometry" />
        </mxCell>
        <mxCell id="wzYJ2r0seQuiLL_xnfaj-12" value="" style="shape=partialRectangle;connectable=0;fillColor=none;top=0;left=0;bottom=0;right=0;editable=1;overflow=hidden;whiteSpace=wrap;html=1;" parent="wzYJ2r0seQuiLL_xnfaj-11" vertex="1">
          <mxGeometry width="30" height="30" as="geometry">
            <mxRectangle width="30" height="30" as="alternateBounds" />
          </mxGeometry>
        </mxCell>
        <mxCell id="wzYJ2r0seQuiLL_xnfaj-13" value="apellido1" style="shape=partialRectangle;connectable=0;fillColor=none;top=0;left=0;bottom=0;right=0;align=left;spacingLeft=6;overflow=hidden;whiteSpace=wrap;html=1;" parent="wzYJ2r0seQuiLL_xnfaj-11" vertex="1">
          <mxGeometry x="30" width="150" height="30" as="geometry">
            <mxRectangle width="150" height="30" as="alternateBounds" />
          </mxGeometry>
        </mxCell>
        <mxCell id="wzYJ2r0seQuiLL_xnfaj-40" value="" style="shape=tableRow;horizontal=0;startSize=0;swimlaneHead=0;swimlaneBody=0;fillColor=none;collapsible=0;dropTarget=0;points=[[0,0.5],[1,0.5]];portConstraint=eastwest;top=0;left=0;right=0;bottom=0;" parent="wzYJ2r0seQuiLL_xnfaj-1" vertex="1">
          <mxGeometry y="150" width="180" height="30" as="geometry" />
        </mxCell>
        <mxCell id="wzYJ2r0seQuiLL_xnfaj-41" value="" style="shape=partialRectangle;connectable=0;fillColor=none;top=0;left=0;bottom=0;right=0;editable=1;overflow=hidden;whiteSpace=wrap;html=1;" parent="wzYJ2r0seQuiLL_xnfaj-40" vertex="1">
          <mxGeometry width="30" height="30" as="geometry">
            <mxRectangle width="30" height="30" as="alternateBounds" />
          </mxGeometry>
        </mxCell>
        <mxCell id="wzYJ2r0seQuiLL_xnfaj-42" value="apellido2" style="shape=partialRectangle;connectable=0;fillColor=none;top=0;left=0;bottom=0;right=0;align=left;spacingLeft=6;overflow=hidden;whiteSpace=wrap;html=1;" parent="wzYJ2r0seQuiLL_xnfaj-40" vertex="1">
          <mxGeometry x="30" width="150" height="30" as="geometry">
            <mxRectangle width="150" height="30" as="alternateBounds" />
          </mxGeometry>
        </mxCell>
        <mxCell id="wzYJ2r0seQuiLL_xnfaj-46" value="" style="shape=tableRow;horizontal=0;startSize=0;swimlaneHead=0;swimlaneBody=0;fillColor=none;collapsible=0;dropTarget=0;points=[[0,0.5],[1,0.5]];portConstraint=eastwest;top=0;left=0;right=0;bottom=0;" parent="wzYJ2r0seQuiLL_xnfaj-1" vertex="1">
          <mxGeometry y="180" width="180" height="30" as="geometry" />
        </mxCell>
        <mxCell id="wzYJ2r0seQuiLL_xnfaj-47" value="" style="shape=partialRectangle;connectable=0;fillColor=none;top=0;left=0;bottom=0;right=0;editable=1;overflow=hidden;whiteSpace=wrap;html=1;" parent="wzYJ2r0seQuiLL_xnfaj-46" vertex="1">
          <mxGeometry width="30" height="30" as="geometry">
            <mxRectangle width="30" height="30" as="alternateBounds" />
          </mxGeometry>
        </mxCell>
        <mxCell id="wzYJ2r0seQuiLL_xnfaj-48" value="email" style="shape=partialRectangle;connectable=0;fillColor=none;top=0;left=0;bottom=0;right=0;align=left;spacingLeft=6;overflow=hidden;whiteSpace=wrap;html=1;" parent="wzYJ2r0seQuiLL_xnfaj-46" vertex="1">
          <mxGeometry x="30" width="150" height="30" as="geometry">
            <mxRectangle width="150" height="30" as="alternateBounds" />
          </mxGeometry>
        </mxCell>
        <mxCell id="qb2vWf6YupKcYmzAb9Nw-108" style="shape=tableRow;horizontal=0;startSize=0;swimlaneHead=0;swimlaneBody=0;fillColor=none;collapsible=0;dropTarget=0;points=[[0,0.5],[1,0.5]];portConstraint=eastwest;top=0;left=0;right=0;bottom=0;" vertex="1" parent="wzYJ2r0seQuiLL_xnfaj-1">
          <mxGeometry y="210" width="180" height="30" as="geometry" />
        </mxCell>
        <mxCell id="qb2vWf6YupKcYmzAb9Nw-109" value="FK" style="shape=partialRectangle;connectable=0;fillColor=none;top=0;left=0;bottom=0;right=0;editable=1;overflow=hidden;whiteSpace=wrap;html=1;" vertex="1" parent="qb2vWf6YupKcYmzAb9Nw-108">
          <mxGeometry width="30" height="30" as="geometry">
            <mxRectangle width="30" height="30" as="alternateBounds" />
          </mxGeometry>
        </mxCell>
        <mxCell id="qb2vWf6YupKcYmzAb9Nw-110" value="idDepartamento" style="shape=partialRectangle;connectable=0;fillColor=none;top=0;left=0;bottom=0;right=0;align=left;spacingLeft=6;overflow=hidden;whiteSpace=wrap;html=1;" vertex="1" parent="qb2vWf6YupKcYmzAb9Nw-108">
          <mxGeometry x="30" width="150" height="30" as="geometry">
            <mxRectangle width="150" height="30" as="alternateBounds" />
          </mxGeometry>
        </mxCell>
        <mxCell id="qb2vWf6YupKcYmzAb9Nw-120" style="shape=tableRow;horizontal=0;startSize=0;swimlaneHead=0;swimlaneBody=0;fillColor=none;collapsible=0;dropTarget=0;points=[[0,0.5],[1,0.5]];portConstraint=eastwest;top=0;left=0;right=0;bottom=0;" vertex="1" parent="wzYJ2r0seQuiLL_xnfaj-1">
          <mxGeometry y="240" width="180" height="30" as="geometry" />
        </mxCell>
        <mxCell id="qb2vWf6YupKcYmzAb9Nw-121" value="FK" style="shape=partialRectangle;connectable=0;fillColor=none;top=0;left=0;bottom=0;right=0;editable=1;overflow=hidden;whiteSpace=wrap;html=1;" vertex="1" parent="qb2vWf6YupKcYmzAb9Nw-120">
          <mxGeometry width="30" height="30" as="geometry">
            <mxRectangle width="30" height="30" as="alternateBounds" />
          </mxGeometry>
        </mxCell>
        <mxCell id="qb2vWf6YupKcYmzAb9Nw-122" value="idRol" style="shape=partialRectangle;connectable=0;fillColor=none;top=0;left=0;bottom=0;right=0;align=left;spacingLeft=6;overflow=hidden;whiteSpace=wrap;html=1;" vertex="1" parent="qb2vWf6YupKcYmzAb9Nw-120">
          <mxGeometry x="30" width="150" height="30" as="geometry">
            <mxRectangle width="150" height="30" as="alternateBounds" />
          </mxGeometry>
        </mxCell>
        <mxCell id="wzYJ2r0seQuiLL_xnfaj-14" value="ASIGNATURAS" style="shape=table;startSize=30;container=1;collapsible=1;childLayout=tableLayout;fixedRows=1;rowLines=0;fontStyle=1;align=center;resizeLast=1;html=1;" parent="1" vertex="1">
          <mxGeometry x="68" y="220" width="180" height="150" as="geometry">
            <mxRectangle x="560" y="220" width="80" height="30" as="alternateBounds" />
          </mxGeometry>
        </mxCell>
        <mxCell id="wzYJ2r0seQuiLL_xnfaj-15" value="" style="shape=tableRow;horizontal=0;startSize=0;swimlaneHead=0;swimlaneBody=0;fillColor=none;collapsible=0;dropTarget=0;points=[[0,0.5],[1,0.5]];portConstraint=eastwest;top=0;left=0;right=0;bottom=1;" parent="wzYJ2r0seQuiLL_xnfaj-14" vertex="1">
          <mxGeometry y="30" width="180" height="30" as="geometry" />
        </mxCell>
        <mxCell id="wzYJ2r0seQuiLL_xnfaj-16" value="PK" style="shape=partialRectangle;connectable=0;fillColor=none;top=0;left=0;bottom=0;right=0;fontStyle=1;overflow=hidden;whiteSpace=wrap;html=1;" parent="wzYJ2r0seQuiLL_xnfaj-15" vertex="1">
          <mxGeometry width="30" height="30" as="geometry">
            <mxRectangle width="30" height="30" as="alternateBounds" />
          </mxGeometry>
        </mxCell>
        <mxCell id="wzYJ2r0seQuiLL_xnfaj-17" value="idAsignatura" style="shape=partialRectangle;connectable=0;fillColor=none;top=0;left=0;bottom=0;right=0;align=left;spacingLeft=6;fontStyle=5;overflow=hidden;whiteSpace=wrap;html=1;" parent="wzYJ2r0seQuiLL_xnfaj-15" vertex="1">
          <mxGeometry x="30" width="150" height="30" as="geometry">
            <mxRectangle width="150" height="30" as="alternateBounds" />
          </mxGeometry>
        </mxCell>
        <mxCell id="wzYJ2r0seQuiLL_xnfaj-18" value="" style="shape=tableRow;horizontal=0;startSize=0;swimlaneHead=0;swimlaneBody=0;fillColor=none;collapsible=0;dropTarget=0;points=[[0,0.5],[1,0.5]];portConstraint=eastwest;top=0;left=0;right=0;bottom=0;" parent="wzYJ2r0seQuiLL_xnfaj-14" vertex="1">
          <mxGeometry y="60" width="180" height="30" as="geometry" />
        </mxCell>
        <mxCell id="wzYJ2r0seQuiLL_xnfaj-19" value="" style="shape=partialRectangle;connectable=0;fillColor=none;top=0;left=0;bottom=0;right=0;editable=1;overflow=hidden;whiteSpace=wrap;html=1;" parent="wzYJ2r0seQuiLL_xnfaj-18" vertex="1">
          <mxGeometry width="30" height="30" as="geometry">
            <mxRectangle width="30" height="30" as="alternateBounds" />
          </mxGeometry>
        </mxCell>
        <mxCell id="wzYJ2r0seQuiLL_xnfaj-20" value="nombreAsignatura" style="shape=partialRectangle;connectable=0;fillColor=none;top=0;left=0;bottom=0;right=0;align=left;spacingLeft=6;overflow=hidden;whiteSpace=wrap;html=1;" parent="wzYJ2r0seQuiLL_xnfaj-18" vertex="1">
          <mxGeometry x="30" width="150" height="30" as="geometry">
            <mxRectangle width="150" height="30" as="alternateBounds" />
          </mxGeometry>
        </mxCell>
        <mxCell id="wzYJ2r0seQuiLL_xnfaj-21" value="" style="shape=tableRow;horizontal=0;startSize=0;swimlaneHead=0;swimlaneBody=0;fillColor=none;collapsible=0;dropTarget=0;points=[[0,0.5],[1,0.5]];portConstraint=eastwest;top=0;left=0;right=0;bottom=0;" parent="wzYJ2r0seQuiLL_xnfaj-14" vertex="1">
          <mxGeometry y="90" width="180" height="30" as="geometry" />
        </mxCell>
        <mxCell id="wzYJ2r0seQuiLL_xnfaj-22" value="" style="shape=partialRectangle;connectable=0;fillColor=none;top=0;left=0;bottom=0;right=0;editable=1;overflow=hidden;whiteSpace=wrap;html=1;" parent="wzYJ2r0seQuiLL_xnfaj-21" vertex="1">
          <mxGeometry width="30" height="30" as="geometry">
            <mxRectangle width="30" height="30" as="alternateBounds" />
          </mxGeometry>
        </mxCell>
        <mxCell id="wzYJ2r0seQuiLL_xnfaj-23" value="curso" style="shape=partialRectangle;connectable=0;fillColor=none;top=0;left=0;bottom=0;right=0;align=left;spacingLeft=6;overflow=hidden;whiteSpace=wrap;html=1;" parent="wzYJ2r0seQuiLL_xnfaj-21" vertex="1">
          <mxGeometry x="30" width="150" height="30" as="geometry">
            <mxRectangle width="150" height="30" as="alternateBounds" />
          </mxGeometry>
        </mxCell>
        <mxCell id="qb2vWf6YupKcYmzAb9Nw-111" style="shape=tableRow;horizontal=0;startSize=0;swimlaneHead=0;swimlaneBody=0;fillColor=none;collapsible=0;dropTarget=0;points=[[0,0.5],[1,0.5]];portConstraint=eastwest;top=0;left=0;right=0;bottom=0;" vertex="1" parent="wzYJ2r0seQuiLL_xnfaj-14">
          <mxGeometry y="120" width="180" height="30" as="geometry" />
        </mxCell>
        <mxCell id="qb2vWf6YupKcYmzAb9Nw-112" value="FK" style="shape=partialRectangle;connectable=0;fillColor=none;top=0;left=0;bottom=0;right=0;editable=1;overflow=hidden;whiteSpace=wrap;html=1;" vertex="1" parent="qb2vWf6YupKcYmzAb9Nw-111">
          <mxGeometry width="30" height="30" as="geometry">
            <mxRectangle width="30" height="30" as="alternateBounds" />
          </mxGeometry>
        </mxCell>
        <mxCell id="qb2vWf6YupKcYmzAb9Nw-113" value="idDepartamento" style="shape=partialRectangle;connectable=0;fillColor=none;top=0;left=0;bottom=0;right=0;align=left;spacingLeft=6;overflow=hidden;whiteSpace=wrap;html=1;" vertex="1" parent="qb2vWf6YupKcYmzAb9Nw-111">
          <mxGeometry x="30" width="150" height="30" as="geometry">
            <mxRectangle width="150" height="30" as="alternateBounds" />
          </mxGeometry>
        </mxCell>
        <mxCell id="wzYJ2r0seQuiLL_xnfaj-27" value="RESERVAS" style="shape=table;startSize=30;container=1;collapsible=1;childLayout=tableLayout;fixedRows=1;rowLines=0;fontStyle=1;align=center;resizeLast=1;html=1;" parent="1" vertex="1">
          <mxGeometry x="283.5" y="10" width="209" height="150" as="geometry" />
        </mxCell>
        <mxCell id="wzYJ2r0seQuiLL_xnfaj-28" value="" style="shape=tableRow;horizontal=0;startSize=0;swimlaneHead=0;swimlaneBody=0;fillColor=none;collapsible=0;dropTarget=0;points=[[0,0.5],[1,0.5]];portConstraint=eastwest;top=0;left=0;right=0;bottom=1;" parent="wzYJ2r0seQuiLL_xnfaj-27" vertex="1">
          <mxGeometry y="30" width="209" height="30" as="geometry" />
        </mxCell>
        <mxCell id="wzYJ2r0seQuiLL_xnfaj-29" value="PK" style="shape=partialRectangle;connectable=0;fillColor=none;top=0;left=0;bottom=0;right=0;fontStyle=1;overflow=hidden;whiteSpace=wrap;html=1;" parent="wzYJ2r0seQuiLL_xnfaj-28" vertex="1">
          <mxGeometry width="30" height="30" as="geometry">
            <mxRectangle width="30" height="30" as="alternateBounds" />
          </mxGeometry>
        </mxCell>
        <mxCell id="wzYJ2r0seQuiLL_xnfaj-30" value="idReserva" style="shape=partialRectangle;connectable=0;fillColor=none;top=0;left=0;bottom=0;right=0;align=left;spacingLeft=6;fontStyle=5;overflow=hidden;whiteSpace=wrap;html=1;" parent="wzYJ2r0seQuiLL_xnfaj-28" vertex="1">
          <mxGeometry x="30" width="179" height="30" as="geometry">
            <mxRectangle width="179" height="30" as="alternateBounds" />
          </mxGeometry>
        </mxCell>
        <mxCell id="wzYJ2r0seQuiLL_xnfaj-31" value="" style="shape=tableRow;horizontal=0;startSize=0;swimlaneHead=0;swimlaneBody=0;fillColor=none;collapsible=0;dropTarget=0;points=[[0,0.5],[1,0.5]];portConstraint=eastwest;top=0;left=0;right=0;bottom=0;" parent="wzYJ2r0seQuiLL_xnfaj-27" vertex="1">
          <mxGeometry y="60" width="209" height="30" as="geometry" />
        </mxCell>
        <mxCell id="wzYJ2r0seQuiLL_xnfaj-32" value="" style="shape=partialRectangle;connectable=0;fillColor=none;top=0;left=0;bottom=0;right=0;editable=1;overflow=hidden;whiteSpace=wrap;html=1;" parent="wzYJ2r0seQuiLL_xnfaj-31" vertex="1">
          <mxGeometry width="30" height="30" as="geometry">
            <mxRectangle width="30" height="30" as="alternateBounds" />
          </mxGeometry>
        </mxCell>
        <mxCell id="wzYJ2r0seQuiLL_xnfaj-33" value="fecha" style="shape=partialRectangle;connectable=0;fillColor=none;top=0;left=0;bottom=0;right=0;align=left;spacingLeft=6;overflow=hidden;whiteSpace=wrap;html=1;" parent="wzYJ2r0seQuiLL_xnfaj-31" vertex="1">
          <mxGeometry x="30" width="179" height="30" as="geometry">
            <mxRectangle width="179" height="30" as="alternateBounds" />
          </mxGeometry>
        </mxCell>
        <mxCell id="wzYJ2r0seQuiLL_xnfaj-34" value="" style="shape=tableRow;horizontal=0;startSize=0;swimlaneHead=0;swimlaneBody=0;fillColor=none;collapsible=0;dropTarget=0;points=[[0,0.5],[1,0.5]];portConstraint=eastwest;top=0;left=0;right=0;bottom=0;" parent="wzYJ2r0seQuiLL_xnfaj-27" vertex="1">
          <mxGeometry y="90" width="209" height="30" as="geometry" />
        </mxCell>
        <mxCell id="wzYJ2r0seQuiLL_xnfaj-35" value="" style="shape=partialRectangle;connectable=0;fillColor=none;top=0;left=0;bottom=0;right=0;editable=1;overflow=hidden;whiteSpace=wrap;html=1;" parent="wzYJ2r0seQuiLL_xnfaj-34" vertex="1">
          <mxGeometry width="30" height="30" as="geometry">
            <mxRectangle width="30" height="30" as="alternateBounds" />
          </mxGeometry>
        </mxCell>
        <mxCell id="wzYJ2r0seQuiLL_xnfaj-36" value="tramoHorario" style="shape=partialRectangle;connectable=0;fillColor=none;top=0;left=0;bottom=0;right=0;align=left;spacingLeft=6;overflow=hidden;whiteSpace=wrap;html=1;" parent="wzYJ2r0seQuiLL_xnfaj-34" vertex="1">
          <mxGeometry x="30" width="179" height="30" as="geometry">
            <mxRectangle width="179" height="30" as="alternateBounds" />
          </mxGeometry>
        </mxCell>
        <mxCell id="qb2vWf6YupKcYmzAb9Nw-114" style="shape=tableRow;horizontal=0;startSize=0;swimlaneHead=0;swimlaneBody=0;fillColor=none;collapsible=0;dropTarget=0;points=[[0,0.5],[1,0.5]];portConstraint=eastwest;top=0;left=0;right=0;bottom=0;" vertex="1" parent="wzYJ2r0seQuiLL_xnfaj-27">
          <mxGeometry y="120" width="209" height="30" as="geometry" />
        </mxCell>
        <mxCell id="qb2vWf6YupKcYmzAb9Nw-115" value="FK" style="shape=partialRectangle;connectable=0;fillColor=none;top=0;left=0;bottom=0;right=0;editable=1;overflow=hidden;whiteSpace=wrap;html=1;" vertex="1" parent="qb2vWf6YupKcYmzAb9Nw-114">
          <mxGeometry width="30" height="30" as="geometry">
            <mxRectangle width="30" height="30" as="alternateBounds" />
          </mxGeometry>
        </mxCell>
        <mxCell id="qb2vWf6YupKcYmzAb9Nw-116" value="idUsuario, idDepartamento" style="shape=partialRectangle;connectable=0;fillColor=none;top=0;left=0;bottom=0;right=0;align=left;spacingLeft=6;overflow=hidden;whiteSpace=wrap;html=1;" vertex="1" parent="qb2vWf6YupKcYmzAb9Nw-114">
          <mxGeometry x="30" width="179" height="30" as="geometry">
            <mxRectangle width="179" height="30" as="alternateBounds" />
          </mxGeometry>
        </mxCell>
        <mxCell id="wzYJ2r0seQuiLL_xnfaj-66" value="ASIGNATURA" style="whiteSpace=wrap;html=1;align=center;" parent="1" vertex="1">
          <mxGeometry x="147" y="787" width="100" height="40" as="geometry" />
        </mxCell>
        <mxCell id="wzYJ2r0seQuiLL_xnfaj-67" value="RESERVA" style="whiteSpace=wrap;html=1;align=center;" parent="1" vertex="1">
          <mxGeometry x="147" y="1027" width="100" height="40" as="geometry" />
        </mxCell>
        <mxCell id="wzYJ2r0seQuiLL_xnfaj-68" value="USUARIO" style="whiteSpace=wrap;html=1;align=center;" parent="1" vertex="1">
          <mxGeometry x="589.5" y="787" width="100" height="40" as="geometry" />
        </mxCell>
        <mxCell id="wzYJ2r0seQuiLL_xnfaj-78" value="im&lt;span style=&quot;background-color: transparent; color: light-dark(rgb(0, 0, 0), rgb(255, 255, 255));&quot;&gt;parte&lt;/span&gt;" style="html=1;whiteSpace=wrap;aspect=fixed;shape=isoRectangle;" parent="1" vertex="1">
          <mxGeometry x="383.25" y="780.75" width="87.5" height="52.5" as="geometry" />
        </mxCell>
        <mxCell id="wzYJ2r0seQuiLL_xnfaj-79" value="hace" style="html=1;whiteSpace=wrap;aspect=fixed;shape=isoRectangle;" parent="1" vertex="1">
          <mxGeometry x="357" y="917" width="87.5" height="52.5" as="geometry" />
        </mxCell>
        <mxCell id="wzYJ2r0seQuiLL_xnfaj-81" style="rounded=0;orthogonalLoop=1;jettySize=auto;html=1;entryX=0.5;entryY=0;entryDx=0;entryDy=0;exitX=-0.005;exitY=0.501;exitDx=0;exitDy=0;exitPerimeter=0;endArrow=none;startFill=0;" parent="1" source="wzYJ2r0seQuiLL_xnfaj-79" target="wzYJ2r0seQuiLL_xnfaj-67" edge="1">
          <mxGeometry relative="1" as="geometry">
            <mxPoint x="620" y="972" as="sourcePoint" />
            <mxPoint x="550" y="1052" as="targetPoint" />
          </mxGeometry>
        </mxCell>
        <mxCell id="wzYJ2r0seQuiLL_xnfaj-82" style="rounded=0;orthogonalLoop=1;jettySize=auto;html=1;entryX=1;entryY=0.513;entryDx=0;entryDy=0;exitX=0;exitY=0.5;exitDx=0;exitDy=0;endArrow=none;startFill=0;entryPerimeter=0;" parent="1" source="wzYJ2r0seQuiLL_xnfaj-68" target="wzYJ2r0seQuiLL_xnfaj-79" edge="1">
          <mxGeometry relative="1" as="geometry">
            <mxPoint x="630" y="982" as="sourcePoint" />
            <mxPoint x="560" y="1062" as="targetPoint" />
          </mxGeometry>
        </mxCell>
        <mxCell id="wzYJ2r0seQuiLL_xnfaj-83" style="rounded=0;orthogonalLoop=1;jettySize=auto;html=1;entryX=0.996;entryY=0.494;entryDx=0;entryDy=0;exitX=0;exitY=0.5;exitDx=0;exitDy=0;endArrow=none;startFill=0;entryPerimeter=0;" parent="1" source="wzYJ2r0seQuiLL_xnfaj-68" target="wzYJ2r0seQuiLL_xnfaj-78" edge="1">
          <mxGeometry relative="1" as="geometry">
            <mxPoint x="640" y="992" as="sourcePoint" />
            <mxPoint x="570" y="1072" as="targetPoint" />
          </mxGeometry>
        </mxCell>
        <mxCell id="wzYJ2r0seQuiLL_xnfaj-84" style="rounded=0;orthogonalLoop=1;jettySize=auto;html=1;entryX=1;entryY=0.5;entryDx=0;entryDy=0;exitX=0.043;exitY=0.5;exitDx=0;exitDy=0;exitPerimeter=0;endArrow=none;startFill=0;" parent="1" source="wzYJ2r0seQuiLL_xnfaj-78" target="wzYJ2r0seQuiLL_xnfaj-66" edge="1">
          <mxGeometry relative="1" as="geometry">
            <mxPoint x="650" y="1002" as="sourcePoint" />
            <mxPoint x="580" y="1082" as="targetPoint" />
          </mxGeometry>
        </mxCell>
        <mxCell id="kKRNNC9Q83lT1yHQBPAs-1" value="(1,n)" style="text;html=1;align=center;verticalAlign=middle;resizable=0;points=[];autosize=1;strokeColor=none;fillColor=none;" parent="1" vertex="1">
          <mxGeometry x="235" y="780.75" width="50" height="30" as="geometry" />
        </mxCell>
        <mxCell id="kKRNNC9Q83lT1yHQBPAs-2" value="(1,n)" style="text;html=1;align=center;verticalAlign=middle;resizable=0;points=[];autosize=1;strokeColor=none;fillColor=none;" parent="1" vertex="1">
          <mxGeometry x="539.5" y="780.75" width="50" height="30" as="geometry" />
        </mxCell>
        <mxCell id="kKRNNC9Q83lT1yHQBPAs-3" value="(0,n)" style="text;html=1;align=center;verticalAlign=middle;resizable=0;points=[];autosize=1;strokeColor=none;fillColor=none;" parent="1" vertex="1">
          <mxGeometry x="185" y="992" width="50" height="30" as="geometry" />
        </mxCell>
        <mxCell id="kKRNNC9Q83lT1yHQBPAs-4" value="(1,1)" style="text;html=1;align=center;verticalAlign=middle;resizable=0;points=[];autosize=1;strokeColor=none;fillColor=none;" parent="1" vertex="1">
          <mxGeometry x="553" y="819" width="50" height="30" as="geometry" />
        </mxCell>
        <mxCell id="kKRNNC9Q83lT1yHQBPAs-5" value="N:M" style="text;html=1;align=center;verticalAlign=middle;resizable=0;points=[];autosize=1;" parent="1" vertex="1">
          <mxGeometry x="402" y="750.75" width="50" height="30" as="geometry" />
        </mxCell>
        <mxCell id="kKRNNC9Q83lT1yHQBPAs-6" value="1:N" style="text;html=1;align=center;verticalAlign=middle;resizable=0;points=[];autosize=1;strokeColor=none;fillColor=none;" parent="1" vertex="1">
          <mxGeometry x="383.25" y="887" width="40" height="30" as="geometry" />
        </mxCell>
        <mxCell id="s3r70qQsfje_ApMH5TLD-10" style="rounded=0;orthogonalLoop=1;jettySize=auto;html=1;entryX=0.5;entryY=0;entryDx=0;entryDy=0;endArrow=none;startFill=0;" parent="1" source="kKRNNC9Q83lT1yHQBPAs-8" target="wzYJ2r0seQuiLL_xnfaj-66" edge="1">
          <mxGeometry relative="1" as="geometry" />
        </mxCell>
        <mxCell id="kKRNNC9Q83lT1yHQBPAs-8" value="&lt;span style=&quot;text-align: left;&quot;&gt;nombreAsignatura&lt;/span&gt;" style="ellipse;whiteSpace=wrap;html=1;" parent="1" vertex="1">
          <mxGeometry x="107" y="692" width="120" height="50" as="geometry" />
        </mxCell>
        <mxCell id="s3r70qQsfje_ApMH5TLD-14" style="rounded=0;orthogonalLoop=1;jettySize=auto;html=1;entryX=0.5;entryY=1;entryDx=0;entryDy=0;endArrow=none;startFill=0;" parent="1" source="kKRNNC9Q83lT1yHQBPAs-10" target="wzYJ2r0seQuiLL_xnfaj-66" edge="1">
          <mxGeometry relative="1" as="geometry" />
        </mxCell>
        <mxCell id="kKRNNC9Q83lT1yHQBPAs-10" value="&lt;span style=&quot;color: rgb(0, 0, 0); font-family: Helvetica; font-size: 12px; font-style: normal; font-variant-ligatures: normal; font-variant-caps: normal; font-weight: 400; letter-spacing: normal; orphans: 2; text-align: left; text-indent: 0px; text-transform: none; widows: 2; word-spacing: 0px; -webkit-text-stroke-width: 0px; white-space: normal; background-color: rgb(251, 251, 251); text-decoration-thickness: initial; text-decoration-style: initial; text-decoration-color: initial; float: none; display: inline !important;&quot;&gt;curso&lt;/span&gt;" style="ellipse;whiteSpace=wrap;html=1;" parent="1" vertex="1">
          <mxGeometry x="17" y="862.75" width="110" height="43.75" as="geometry" />
        </mxCell>
        <mxCell id="s3r70qQsfje_ApMH5TLD-12" style="rounded=0;orthogonalLoop=1;jettySize=auto;html=1;endArrow=none;startFill=0;" parent="1" source="kKRNNC9Q83lT1yHQBPAs-12" target="wzYJ2r0seQuiLL_xnfaj-66" edge="1">
          <mxGeometry relative="1" as="geometry" />
        </mxCell>
        <mxCell id="kKRNNC9Q83lT1yHQBPAs-12" value="&lt;span style=&quot;color: rgb(0, 0, 0); font-family: Helvetica; font-size: 12px; font-style: normal; font-variant-ligatures: normal; font-variant-caps: normal; font-weight: 700; letter-spacing: normal; orphans: 2; text-align: left; text-indent: 0px; text-transform: none; widows: 2; word-spacing: 0px; -webkit-text-stroke-width: 0px; white-space: normal; background-color: rgb(251, 251, 251); text-decoration: underline; float: none; display: inline !important;&quot;&gt;idAsignatura&lt;/span&gt;" style="ellipse;whiteSpace=wrap;html=1;" parent="1" vertex="1">
          <mxGeometry x="17" y="737" width="100" height="50" as="geometry" />
        </mxCell>
        <mxCell id="s3r70qQsfje_ApMH5TLD-16" style="rounded=0;orthogonalLoop=1;jettySize=auto;html=1;entryX=0.25;entryY=1;entryDx=0;entryDy=0;endArrow=none;startFill=0;" parent="1" source="s3r70qQsfje_ApMH5TLD-1" target="wzYJ2r0seQuiLL_xnfaj-67" edge="1">
          <mxGeometry relative="1" as="geometry" />
        </mxCell>
        <mxCell id="s3r70qQsfje_ApMH5TLD-1" value="&lt;b&gt;&lt;u&gt;idReserva&lt;/u&gt;&lt;/b&gt;" style="ellipse;whiteSpace=wrap;html=1;" parent="1" vertex="1">
          <mxGeometry x="7" y="1082" width="70" height="50" as="geometry" />
        </mxCell>
        <mxCell id="s3r70qQsfje_ApMH5TLD-17" style="rounded=0;orthogonalLoop=1;jettySize=auto;html=1;entryX=0.75;entryY=1;entryDx=0;entryDy=0;endArrow=none;startFill=0;" parent="1" source="s3r70qQsfje_ApMH5TLD-2" target="wzYJ2r0seQuiLL_xnfaj-67" edge="1">
          <mxGeometry relative="1" as="geometry" />
        </mxCell>
        <mxCell id="s3r70qQsfje_ApMH5TLD-2" value="fecha" style="ellipse;whiteSpace=wrap;html=1;" parent="1" vertex="1">
          <mxGeometry x="125" y="1107" width="60" height="40" as="geometry" />
        </mxCell>
        <mxCell id="s3r70qQsfje_ApMH5TLD-15" style="rounded=0;orthogonalLoop=1;jettySize=auto;html=1;entryX=0;entryY=0.5;entryDx=0;entryDy=0;endArrow=none;startFill=0;" parent="1" source="s3r70qQsfje_ApMH5TLD-3" target="wzYJ2r0seQuiLL_xnfaj-67" edge="1">
          <mxGeometry relative="1" as="geometry" />
        </mxCell>
        <mxCell id="s3r70qQsfje_ApMH5TLD-3" value="tramoHorario" style="ellipse;whiteSpace=wrap;html=1;" parent="1" vertex="1">
          <mxGeometry x="22" y="977" width="90" height="60" as="geometry" />
        </mxCell>
        <mxCell id="s3r70qQsfje_ApMH5TLD-18" style="rounded=0;orthogonalLoop=1;jettySize=auto;html=1;entryX=0.25;entryY=0;entryDx=0;entryDy=0;endArrow=none;startFill=0;" parent="1" source="s3r70qQsfje_ApMH5TLD-5" target="wzYJ2r0seQuiLL_xnfaj-68" edge="1">
          <mxGeometry relative="1" as="geometry" />
        </mxCell>
        <mxCell id="s3r70qQsfje_ApMH5TLD-5" value="&lt;u&gt;&lt;b&gt;idUsuario&lt;/b&gt;&lt;/u&gt;" style="ellipse;whiteSpace=wrap;html=1;" parent="1" vertex="1">
          <mxGeometry x="577" y="682" width="70" height="40" as="geometry" />
        </mxCell>
        <mxCell id="s3r70qQsfje_ApMH5TLD-20" style="rounded=0;orthogonalLoop=1;jettySize=auto;html=1;entryX=0.75;entryY=0;entryDx=0;entryDy=0;endArrow=none;startFill=0;" parent="1" source="s3r70qQsfje_ApMH5TLD-6" target="wzYJ2r0seQuiLL_xnfaj-68" edge="1">
          <mxGeometry relative="1" as="geometry" />
        </mxCell>
        <mxCell id="s3r70qQsfje_ApMH5TLD-6" value="contrasena" style="ellipse;whiteSpace=wrap;html=1;" parent="1" vertex="1">
          <mxGeometry x="707" y="720.75" width="80" height="30" as="geometry" />
        </mxCell>
        <mxCell id="s3r70qQsfje_ApMH5TLD-21" style="rounded=0;orthogonalLoop=1;jettySize=auto;html=1;entryX=1;entryY=0;entryDx=0;entryDy=0;endArrow=none;startFill=0;" parent="1" source="s3r70qQsfje_ApMH5TLD-7" target="wzYJ2r0seQuiLL_xnfaj-68" edge="1">
          <mxGeometry relative="1" as="geometry" />
        </mxCell>
        <mxCell id="s3r70qQsfje_ApMH5TLD-7" value="apellido1" style="ellipse;whiteSpace=wrap;html=1;" parent="1" vertex="1">
          <mxGeometry x="747" y="767" width="60" height="40" as="geometry" />
        </mxCell>
        <mxCell id="s3r70qQsfje_ApMH5TLD-19" style="rounded=0;orthogonalLoop=1;jettySize=auto;html=1;entryX=0.5;entryY=0;entryDx=0;entryDy=0;endArrow=none;startFill=0;" parent="1" source="s3r70qQsfje_ApMH5TLD-8" target="wzYJ2r0seQuiLL_xnfaj-68" edge="1">
          <mxGeometry relative="1" as="geometry" />
        </mxCell>
        <mxCell id="s3r70qQsfje_ApMH5TLD-8" value="nombreUsuario" style="ellipse;whiteSpace=wrap;html=1;" parent="1" vertex="1">
          <mxGeometry x="677" y="687" width="110" height="30" as="geometry" />
        </mxCell>
        <mxCell id="s3r70qQsfje_ApMH5TLD-29" style="rounded=0;orthogonalLoop=1;jettySize=auto;html=1;entryX=1;entryY=0.5;entryDx=0;entryDy=0;endArrow=none;startFill=0;" parent="1" source="s3r70qQsfje_ApMH5TLD-22" target="wzYJ2r0seQuiLL_xnfaj-68" edge="1">
          <mxGeometry relative="1" as="geometry" />
        </mxCell>
        <mxCell id="s3r70qQsfje_ApMH5TLD-22" value="apellido2" style="ellipse;whiteSpace=wrap;html=1;" parent="1" vertex="1">
          <mxGeometry x="757" y="827" width="60" height="40" as="geometry" />
        </mxCell>
        <mxCell id="s3r70qQsfje_ApMH5TLD-27" style="rounded=0;orthogonalLoop=1;jettySize=auto;html=1;entryX=1;entryY=1;entryDx=0;entryDy=0;endArrow=none;startFill=0;" parent="1" source="s3r70qQsfje_ApMH5TLD-24" target="wzYJ2r0seQuiLL_xnfaj-68" edge="1">
          <mxGeometry relative="1" as="geometry" />
        </mxCell>
        <mxCell id="s3r70qQsfje_ApMH5TLD-24" value="email" style="ellipse;whiteSpace=wrap;html=1;" parent="1" vertex="1">
          <mxGeometry x="727" y="897" width="60" height="40" as="geometry" />
        </mxCell>
        <mxCell id="qb2vWf6YupKcYmzAb9Nw-3" value="DEPARTAMENTO" style="whiteSpace=wrap;html=1;align=center;" vertex="1" parent="1">
          <mxGeometry x="369" y="587" width="103.75" height="40" as="geometry" />
        </mxCell>
        <mxCell id="qb2vWf6YupKcYmzAb9Nw-7" value="corresponde" style="html=1;whiteSpace=wrap;aspect=fixed;shape=isoRectangle;" vertex="1" parent="1">
          <mxGeometry x="277" y="669.5" width="87.5" height="52.5" as="geometry" />
        </mxCell>
        <mxCell id="qb2vWf6YupKcYmzAb9Nw-8" value="pertenece" style="html=1;whiteSpace=wrap;aspect=fixed;shape=isoRectangle;" vertex="1" parent="1">
          <mxGeometry x="477" y="675.75" width="87.5" height="52.5" as="geometry" />
        </mxCell>
        <mxCell id="qb2vWf6YupKcYmzAb9Nw-9" style="rounded=0;orthogonalLoop=1;jettySize=auto;html=1;entryX=0.69;entryY=0.2;entryDx=0;entryDy=0;exitX=0.5;exitY=1;exitDx=0;exitDy=0;endArrow=none;startFill=0;entryPerimeter=0;" edge="1" parent="1" source="qb2vWf6YupKcYmzAb9Nw-3" target="qb2vWf6YupKcYmzAb9Nw-7">
          <mxGeometry relative="1" as="geometry">
            <mxPoint x="397" y="817" as="sourcePoint" />
            <mxPoint x="257" y="817" as="targetPoint" />
          </mxGeometry>
        </mxCell>
        <mxCell id="qb2vWf6YupKcYmzAb9Nw-10" style="rounded=0;orthogonalLoop=1;jettySize=auto;html=1;entryX=0.286;entryY=0.797;entryDx=0;entryDy=0;exitX=0.75;exitY=0;exitDx=0;exitDy=0;endArrow=none;startFill=0;entryPerimeter=0;" edge="1" parent="1" source="wzYJ2r0seQuiLL_xnfaj-66" target="qb2vWf6YupKcYmzAb9Nw-7">
          <mxGeometry relative="1" as="geometry">
            <mxPoint x="407" y="827" as="sourcePoint" />
            <mxPoint x="267" y="827" as="targetPoint" />
          </mxGeometry>
        </mxCell>
        <mxCell id="qb2vWf6YupKcYmzAb9Nw-11" style="rounded=0;orthogonalLoop=1;jettySize=auto;html=1;entryX=0.75;entryY=1;entryDx=0;entryDy=0;exitX=0.264;exitY=0.261;exitDx=0;exitDy=0;exitPerimeter=0;endArrow=none;startFill=0;" edge="1" parent="1" source="qb2vWf6YupKcYmzAb9Nw-8" target="qb2vWf6YupKcYmzAb9Nw-3">
          <mxGeometry relative="1" as="geometry">
            <mxPoint x="417" y="837" as="sourcePoint" />
            <mxPoint x="277" y="837" as="targetPoint" />
          </mxGeometry>
        </mxCell>
        <mxCell id="qb2vWf6YupKcYmzAb9Nw-12" style="rounded=0;orthogonalLoop=1;jettySize=auto;html=1;entryX=0.713;entryY=0.79;entryDx=0;entryDy=0;exitX=0;exitY=0;exitDx=0;exitDy=0;endArrow=none;startFill=0;entryPerimeter=0;" edge="1" parent="1" source="wzYJ2r0seQuiLL_xnfaj-68" target="qb2vWf6YupKcYmzAb9Nw-8">
          <mxGeometry relative="1" as="geometry">
            <mxPoint x="427" y="847" as="sourcePoint" />
            <mxPoint x="287" y="847" as="targetPoint" />
          </mxGeometry>
        </mxCell>
        <mxCell id="qb2vWf6YupKcYmzAb9Nw-13" value="(1,1)" style="text;html=1;align=center;verticalAlign=middle;resizable=0;points=[];autosize=1;strokeColor=none;fillColor=none;" vertex="1" parent="1">
          <mxGeometry x="358" y="621" width="50" height="30" as="geometry" />
        </mxCell>
        <mxCell id="qb2vWf6YupKcYmzAb9Nw-14" value="(1,n)" style="text;html=1;align=center;verticalAlign=middle;resizable=0;points=[];autosize=1;strokeColor=none;fillColor=none;" vertex="1" parent="1">
          <mxGeometry x="197" y="757" width="50" height="30" as="geometry" />
        </mxCell>
        <mxCell id="qb2vWf6YupKcYmzAb9Nw-15" value="N:1" style="text;html=1;align=center;verticalAlign=middle;resizable=0;points=[];autosize=1;" vertex="1" parent="1">
          <mxGeometry x="359" y="682" width="40" height="30" as="geometry" />
        </mxCell>
        <mxCell id="qb2vWf6YupKcYmzAb9Nw-16" value="(1,n)" style="text;html=1;align=center;verticalAlign=middle;resizable=0;points=[];autosize=1;strokeColor=none;fillColor=none;" vertex="1" parent="1">
          <mxGeometry x="568.5" y="757" width="50" height="30" as="geometry" />
        </mxCell>
        <mxCell id="qb2vWf6YupKcYmzAb9Nw-17" value="(1,1)" style="text;html=1;align=center;verticalAlign=middle;resizable=0;points=[];autosize=1;strokeColor=none;fillColor=none;" vertex="1" parent="1">
          <mxGeometry x="447" y="621" width="50" height="30" as="geometry" />
        </mxCell>
        <mxCell id="qb2vWf6YupKcYmzAb9Nw-18" value="N:1" style="text;html=1;align=center;verticalAlign=middle;resizable=0;points=[];autosize=1;" vertex="1" parent="1">
          <mxGeometry x="444.5" y="687" width="40" height="30" as="geometry" />
        </mxCell>
        <mxCell id="qb2vWf6YupKcYmzAb9Nw-19" value="&lt;u&gt;&lt;b&gt;idDepartamento&lt;/b&gt;&lt;/u&gt;" style="ellipse;whiteSpace=wrap;html=1;" vertex="1" parent="1">
          <mxGeometry x="313" y="517" width="108" height="40" as="geometry" />
        </mxCell>
        <mxCell id="qb2vWf6YupKcYmzAb9Nw-20" value="nombreDepartamento" style="ellipse;whiteSpace=wrap;html=1;" vertex="1" parent="1">
          <mxGeometry x="441.5" y="517" width="144.25" height="45" as="geometry" />
        </mxCell>
        <mxCell id="qb2vWf6YupKcYmzAb9Nw-21" style="rounded=0;orthogonalLoop=1;jettySize=auto;html=1;entryX=0.75;entryY=0;entryDx=0;entryDy=0;exitX=0.5;exitY=1;exitDx=0;exitDy=0;endArrow=none;startFill=0;" edge="1" parent="1" source="qb2vWf6YupKcYmzAb9Nw-20" target="qb2vWf6YupKcYmzAb9Nw-3">
          <mxGeometry relative="1" as="geometry">
            <mxPoint x="510" y="699" as="sourcePoint" />
            <mxPoint x="457" y="637" as="targetPoint" />
          </mxGeometry>
        </mxCell>
        <mxCell id="qb2vWf6YupKcYmzAb9Nw-22" style="rounded=0;orthogonalLoop=1;jettySize=auto;html=1;entryX=0.5;entryY=1;entryDx=0;entryDy=0;exitX=0.25;exitY=0;exitDx=0;exitDy=0;endArrow=none;startFill=0;" edge="1" parent="1" source="qb2vWf6YupKcYmzAb9Nw-3" target="qb2vWf6YupKcYmzAb9Nw-19">
          <mxGeometry relative="1" as="geometry">
            <mxPoint x="520" y="709" as="sourcePoint" />
            <mxPoint x="467" y="647" as="targetPoint" />
          </mxGeometry>
        </mxCell>
        <mxCell id="qb2vWf6YupKcYmzAb9Nw-24" value="ROL" style="whiteSpace=wrap;html=1;align=center;" vertex="1" parent="1">
          <mxGeometry x="585.75" y="997" width="103.75" height="40" as="geometry" />
        </mxCell>
        <mxCell id="qb2vWf6YupKcYmzAb9Nw-25" value="tiene" style="html=1;whiteSpace=wrap;aspect=fixed;shape=isoRectangle;" vertex="1" parent="1">
          <mxGeometry x="595.75" y="890.75" width="87.5" height="52.5" as="geometry" />
        </mxCell>
        <mxCell id="qb2vWf6YupKcYmzAb9Nw-26" style="rounded=0;orthogonalLoop=1;jettySize=auto;html=1;entryX=0.498;entryY=0.024;entryDx=0;entryDy=0;exitX=0.5;exitY=1;exitDx=0;exitDy=0;endArrow=none;startFill=0;entryPerimeter=0;" edge="1" parent="1" source="wzYJ2r0seQuiLL_xnfaj-68" target="qb2vWf6YupKcYmzAb9Nw-25">
          <mxGeometry relative="1" as="geometry">
            <mxPoint x="600" y="817" as="sourcePoint" />
            <mxPoint x="480" y="817" as="targetPoint" />
          </mxGeometry>
        </mxCell>
        <mxCell id="qb2vWf6YupKcYmzAb9Nw-27" style="rounded=0;orthogonalLoop=1;jettySize=auto;html=1;entryX=0.5;entryY=0;entryDx=0;entryDy=0;exitX=0.49;exitY=0.976;exitDx=0;exitDy=0;endArrow=none;startFill=0;exitPerimeter=0;" edge="1" parent="1" source="qb2vWf6YupKcYmzAb9Nw-25" target="qb2vWf6YupKcYmzAb9Nw-24">
          <mxGeometry relative="1" as="geometry">
            <mxPoint x="610" y="827" as="sourcePoint" />
            <mxPoint x="490" y="827" as="targetPoint" />
          </mxGeometry>
        </mxCell>
        <mxCell id="qb2vWf6YupKcYmzAb9Nw-29" value="(1,n)" style="text;html=1;align=center;verticalAlign=middle;resizable=0;points=[];autosize=1;strokeColor=none;fillColor=none;" vertex="1" parent="1">
          <mxGeometry x="599" y="820" width="50" height="30" as="geometry" />
        </mxCell>
        <mxCell id="qb2vWf6YupKcYmzAb9Nw-30" value="(1,1)" style="text;html=1;align=center;verticalAlign=middle;resizable=0;points=[];autosize=1;strokeColor=none;fillColor=none;" vertex="1" parent="1">
          <mxGeometry x="597" y="969.5" width="50" height="30" as="geometry" />
        </mxCell>
        <mxCell id="qb2vWf6YupKcYmzAb9Nw-31" value="N:1" style="text;html=1;align=center;verticalAlign=middle;resizable=0;points=[];autosize=1;" vertex="1" parent="1">
          <mxGeometry x="558" y="902" width="40" height="30" as="geometry" />
        </mxCell>
        <mxCell id="qb2vWf6YupKcYmzAb9Nw-32" value="&lt;u&gt;&lt;b&gt;idRol&lt;/b&gt;&lt;/u&gt;" style="ellipse;whiteSpace=wrap;html=1;" vertex="1" parent="1">
          <mxGeometry x="564.5" y="1082" width="70" height="40" as="geometry" />
        </mxCell>
        <mxCell id="qb2vWf6YupKcYmzAb9Nw-34" style="rounded=0;orthogonalLoop=1;jettySize=auto;html=1;entryX=0.5;entryY=1;entryDx=0;entryDy=0;endArrow=none;startFill=0;exitX=0.5;exitY=0;exitDx=0;exitDy=0;" edge="1" parent="1" source="qb2vWf6YupKcYmzAb9Nw-32" target="qb2vWf6YupKcYmzAb9Nw-24">
          <mxGeometry relative="1" as="geometry">
            <mxPoint x="754" y="909" as="sourcePoint" />
            <mxPoint x="700" y="837" as="targetPoint" />
          </mxGeometry>
        </mxCell>
        <mxCell id="qb2vWf6YupKcYmzAb9Nw-36" style="rounded=0;orthogonalLoop=1;jettySize=auto;html=1;entryX=0.75;entryY=1;entryDx=0;entryDy=0;endArrow=none;startFill=0;" edge="1" parent="1" source="qb2vWf6YupKcYmzAb9Nw-35" target="qb2vWf6YupKcYmzAb9Nw-24">
          <mxGeometry relative="1" as="geometry" />
        </mxCell>
        <mxCell id="qb2vWf6YupKcYmzAb9Nw-35" value="nombreRol" style="ellipse;whiteSpace=wrap;html=1;" vertex="1" parent="1">
          <mxGeometry x="677" y="1087" width="70" height="30" as="geometry" />
        </mxCell>
        <mxCell id="qb2vWf6YupKcYmzAb9Nw-37" value="DEPARTAMENTOS" style="shape=table;startSize=30;container=1;collapsible=1;childLayout=tableLayout;fixedRows=1;rowLines=0;fontStyle=1;align=center;resizeLast=1;html=1;" vertex="1" parent="1">
          <mxGeometry x="293.5" y="410" width="180" height="90" as="geometry" />
        </mxCell>
        <mxCell id="qb2vWf6YupKcYmzAb9Nw-38" value="" style="shape=tableRow;horizontal=0;startSize=0;swimlaneHead=0;swimlaneBody=0;fillColor=none;collapsible=0;dropTarget=0;points=[[0,0.5],[1,0.5]];portConstraint=eastwest;top=0;left=0;right=0;bottom=1;" vertex="1" parent="qb2vWf6YupKcYmzAb9Nw-37">
          <mxGeometry y="30" width="180" height="30" as="geometry" />
        </mxCell>
        <mxCell id="qb2vWf6YupKcYmzAb9Nw-39" value="PK" style="shape=partialRectangle;connectable=0;fillColor=none;top=0;left=0;bottom=0;right=0;fontStyle=1;overflow=hidden;whiteSpace=wrap;html=1;" vertex="1" parent="qb2vWf6YupKcYmzAb9Nw-38">
          <mxGeometry width="30" height="30" as="geometry">
            <mxRectangle width="30" height="30" as="alternateBounds" />
          </mxGeometry>
        </mxCell>
        <mxCell id="qb2vWf6YupKcYmzAb9Nw-40" value="idDepartamento" style="shape=partialRectangle;connectable=0;fillColor=none;top=0;left=0;bottom=0;right=0;align=left;spacingLeft=6;fontStyle=5;overflow=hidden;whiteSpace=wrap;html=1;" vertex="1" parent="qb2vWf6YupKcYmzAb9Nw-38">
          <mxGeometry x="30" width="150" height="30" as="geometry">
            <mxRectangle width="150" height="30" as="alternateBounds" />
          </mxGeometry>
        </mxCell>
        <mxCell id="qb2vWf6YupKcYmzAb9Nw-41" value="" style="shape=tableRow;horizontal=0;startSize=0;swimlaneHead=0;swimlaneBody=0;fillColor=none;collapsible=0;dropTarget=0;points=[[0,0.5],[1,0.5]];portConstraint=eastwest;top=0;left=0;right=0;bottom=0;" vertex="1" parent="qb2vWf6YupKcYmzAb9Nw-37">
          <mxGeometry y="60" width="180" height="30" as="geometry" />
        </mxCell>
        <mxCell id="qb2vWf6YupKcYmzAb9Nw-42" value="" style="shape=partialRectangle;connectable=0;fillColor=none;top=0;left=0;bottom=0;right=0;editable=1;overflow=hidden;whiteSpace=wrap;html=1;" vertex="1" parent="qb2vWf6YupKcYmzAb9Nw-41">
          <mxGeometry width="30" height="30" as="geometry">
            <mxRectangle width="30" height="30" as="alternateBounds" />
          </mxGeometry>
        </mxCell>
        <mxCell id="qb2vWf6YupKcYmzAb9Nw-43" value="nombreDepartamento" style="shape=partialRectangle;connectable=0;fillColor=none;top=0;left=0;bottom=0;right=0;align=left;spacingLeft=6;overflow=hidden;whiteSpace=wrap;html=1;" vertex="1" parent="qb2vWf6YupKcYmzAb9Nw-41">
          <mxGeometry x="30" width="150" height="30" as="geometry">
            <mxRectangle width="150" height="30" as="alternateBounds" />
          </mxGeometry>
        </mxCell>
        <mxCell id="qb2vWf6YupKcYmzAb9Nw-47" value="ROLES" style="shape=table;startSize=30;container=1;collapsible=1;childLayout=tableLayout;fixedRows=1;rowLines=0;fontStyle=1;align=center;resizeLast=1;html=1;" vertex="1" parent="1">
          <mxGeometry x="579.5" y="410" width="180" height="90" as="geometry" />
        </mxCell>
        <mxCell id="qb2vWf6YupKcYmzAb9Nw-48" value="" style="shape=tableRow;horizontal=0;startSize=0;swimlaneHead=0;swimlaneBody=0;fillColor=none;collapsible=0;dropTarget=0;points=[[0,0.5],[1,0.5]];portConstraint=eastwest;top=0;left=0;right=0;bottom=1;" vertex="1" parent="qb2vWf6YupKcYmzAb9Nw-47">
          <mxGeometry y="30" width="180" height="30" as="geometry" />
        </mxCell>
        <mxCell id="qb2vWf6YupKcYmzAb9Nw-49" value="PK" style="shape=partialRectangle;connectable=0;fillColor=none;top=0;left=0;bottom=0;right=0;fontStyle=1;overflow=hidden;whiteSpace=wrap;html=1;" vertex="1" parent="qb2vWf6YupKcYmzAb9Nw-48">
          <mxGeometry width="30" height="30" as="geometry">
            <mxRectangle width="30" height="30" as="alternateBounds" />
          </mxGeometry>
        </mxCell>
        <mxCell id="qb2vWf6YupKcYmzAb9Nw-50" value="idRol" style="shape=partialRectangle;connectable=0;fillColor=none;top=0;left=0;bottom=0;right=0;align=left;spacingLeft=6;fontStyle=5;overflow=hidden;whiteSpace=wrap;html=1;" vertex="1" parent="qb2vWf6YupKcYmzAb9Nw-48">
          <mxGeometry x="30" width="150" height="30" as="geometry">
            <mxRectangle width="150" height="30" as="alternateBounds" />
          </mxGeometry>
        </mxCell>
        <mxCell id="qb2vWf6YupKcYmzAb9Nw-51" value="" style="shape=tableRow;horizontal=0;startSize=0;swimlaneHead=0;swimlaneBody=0;fillColor=none;collapsible=0;dropTarget=0;points=[[0,0.5],[1,0.5]];portConstraint=eastwest;top=0;left=0;right=0;bottom=0;" vertex="1" parent="qb2vWf6YupKcYmzAb9Nw-47">
          <mxGeometry y="60" width="180" height="30" as="geometry" />
        </mxCell>
        <mxCell id="qb2vWf6YupKcYmzAb9Nw-52" value="" style="shape=partialRectangle;connectable=0;fillColor=none;top=0;left=0;bottom=0;right=0;editable=1;overflow=hidden;whiteSpace=wrap;html=1;" vertex="1" parent="qb2vWf6YupKcYmzAb9Nw-51">
          <mxGeometry width="30" height="30" as="geometry">
            <mxRectangle width="30" height="30" as="alternateBounds" />
          </mxGeometry>
        </mxCell>
        <mxCell id="qb2vWf6YupKcYmzAb9Nw-53" value="nombreRol" style="shape=partialRectangle;connectable=0;fillColor=none;top=0;left=0;bottom=0;right=0;align=left;spacingLeft=6;overflow=hidden;whiteSpace=wrap;html=1;" vertex="1" parent="qb2vWf6YupKcYmzAb9Nw-51">
          <mxGeometry x="30" width="150" height="30" as="geometry">
            <mxRectangle width="150" height="30" as="alternateBounds" />
          </mxGeometry>
        </mxCell>
        <mxCell id="qb2vWf6YupKcYmzAb9Nw-92" value="USUARIOS - ASIGNATURAS" style="shape=table;startSize=30;container=1;collapsible=1;childLayout=tableLayout;fixedRows=1;rowLines=0;fontStyle=1;align=center;resizeLast=1;html=1;" vertex="1" parent="1">
          <mxGeometry x="312.5" y="180" width="180" height="180" as="geometry">
            <mxRectangle x="560" y="220" width="80" height="30" as="alternateBounds" />
          </mxGeometry>
        </mxCell>
        <mxCell id="qb2vWf6YupKcYmzAb9Nw-93" value="" style="shape=tableRow;horizontal=0;startSize=0;swimlaneHead=0;swimlaneBody=0;fillColor=none;collapsible=0;dropTarget=0;points=[[0,0.5],[1,0.5]];portConstraint=eastwest;top=0;left=0;right=0;bottom=1;" vertex="1" parent="qb2vWf6YupKcYmzAb9Nw-92">
          <mxGeometry y="30" width="180" height="30" as="geometry" />
        </mxCell>
        <mxCell id="qb2vWf6YupKcYmzAb9Nw-94" value="PK" style="shape=partialRectangle;connectable=0;fillColor=none;top=0;left=0;bottom=0;right=0;fontStyle=1;overflow=hidden;whiteSpace=wrap;html=1;" vertex="1" parent="qb2vWf6YupKcYmzAb9Nw-93">
          <mxGeometry width="30" height="30" as="geometry">
            <mxRectangle width="30" height="30" as="alternateBounds" />
          </mxGeometry>
        </mxCell>
        <mxCell id="qb2vWf6YupKcYmzAb9Nw-95" value="idUsuario,idAsignatura" style="shape=partialRectangle;connectable=0;fillColor=none;top=0;left=0;bottom=0;right=0;align=left;spacingLeft=6;fontStyle=5;overflow=hidden;whiteSpace=wrap;html=1;" vertex="1" parent="qb2vWf6YupKcYmzAb9Nw-93">
          <mxGeometry x="30" width="150" height="30" as="geometry">
            <mxRectangle width="150" height="30" as="alternateBounds" />
          </mxGeometry>
        </mxCell>
        <mxCell id="qb2vWf6YupKcYmzAb9Nw-96" value="" style="shape=tableRow;horizontal=0;startSize=0;swimlaneHead=0;swimlaneBody=0;fillColor=none;collapsible=0;dropTarget=0;points=[[0,0.5],[1,0.5]];portConstraint=eastwest;top=0;left=0;right=0;bottom=0;" vertex="1" parent="qb2vWf6YupKcYmzAb9Nw-92">
          <mxGeometry y="60" width="180" height="30" as="geometry" />
        </mxCell>
        <mxCell id="qb2vWf6YupKcYmzAb9Nw-97" value="" style="shape=partialRectangle;connectable=0;fillColor=none;top=0;left=0;bottom=0;right=0;editable=1;overflow=hidden;whiteSpace=wrap;html=1;" vertex="1" parent="qb2vWf6YupKcYmzAb9Nw-96">
          <mxGeometry width="30" height="30" as="geometry">
            <mxRectangle width="30" height="30" as="alternateBounds" />
          </mxGeometry>
        </mxCell>
        <mxCell id="qb2vWf6YupKcYmzAb9Nw-98" value="numAlumnos" style="shape=partialRectangle;connectable=0;fillColor=none;top=0;left=0;bottom=0;right=0;align=left;spacingLeft=6;overflow=hidden;whiteSpace=wrap;html=1;" vertex="1" parent="qb2vWf6YupKcYmzAb9Nw-96">
          <mxGeometry x="30" width="150" height="30" as="geometry">
            <mxRectangle width="150" height="30" as="alternateBounds" />
          </mxGeometry>
        </mxCell>
        <mxCell id="qb2vWf6YupKcYmzAb9Nw-99" value="" style="shape=tableRow;horizontal=0;startSize=0;swimlaneHead=0;swimlaneBody=0;fillColor=none;collapsible=0;dropTarget=0;points=[[0,0.5],[1,0.5]];portConstraint=eastwest;top=0;left=0;right=0;bottom=0;" vertex="1" parent="qb2vWf6YupKcYmzAb9Nw-92">
          <mxGeometry y="90" width="180" height="30" as="geometry" />
        </mxCell>
        <mxCell id="qb2vWf6YupKcYmzAb9Nw-100" value="" style="shape=partialRectangle;connectable=0;fillColor=none;top=0;left=0;bottom=0;right=0;editable=1;overflow=hidden;whiteSpace=wrap;html=1;" vertex="1" parent="qb2vWf6YupKcYmzAb9Nw-99">
          <mxGeometry width="30" height="30" as="geometry">
            <mxRectangle width="30" height="30" as="alternateBounds" />
          </mxGeometry>
        </mxCell>
        <mxCell id="qb2vWf6YupKcYmzAb9Nw-101" value="grupo" style="shape=partialRectangle;connectable=0;fillColor=none;top=0;left=0;bottom=0;right=0;align=left;spacingLeft=6;overflow=hidden;whiteSpace=wrap;html=1;" vertex="1" parent="qb2vWf6YupKcYmzAb9Nw-99">
          <mxGeometry x="30" width="150" height="30" as="geometry">
            <mxRectangle width="150" height="30" as="alternateBounds" />
          </mxGeometry>
        </mxCell>
        <mxCell id="qb2vWf6YupKcYmzAb9Nw-102" style="shape=tableRow;horizontal=0;startSize=0;swimlaneHead=0;swimlaneBody=0;fillColor=none;collapsible=0;dropTarget=0;points=[[0,0.5],[1,0.5]];portConstraint=eastwest;top=0;left=0;right=0;bottom=0;" vertex="1" parent="qb2vWf6YupKcYmzAb9Nw-92">
          <mxGeometry y="120" width="180" height="30" as="geometry" />
        </mxCell>
        <mxCell id="qb2vWf6YupKcYmzAb9Nw-103" value="FK1" style="shape=partialRectangle;connectable=0;fillColor=none;top=0;left=0;bottom=0;right=0;editable=1;overflow=hidden;whiteSpace=wrap;html=1;" vertex="1" parent="qb2vWf6YupKcYmzAb9Nw-102">
          <mxGeometry width="30" height="30" as="geometry">
            <mxRectangle width="30" height="30" as="alternateBounds" />
          </mxGeometry>
        </mxCell>
        <mxCell id="qb2vWf6YupKcYmzAb9Nw-104" value="idUsuario" style="shape=partialRectangle;connectable=0;fillColor=none;top=0;left=0;bottom=0;right=0;align=left;spacingLeft=6;overflow=hidden;whiteSpace=wrap;html=1;" vertex="1" parent="qb2vWf6YupKcYmzAb9Nw-102">
          <mxGeometry x="30" width="150" height="30" as="geometry">
            <mxRectangle width="150" height="30" as="alternateBounds" />
          </mxGeometry>
        </mxCell>
        <mxCell id="qb2vWf6YupKcYmzAb9Nw-105" style="shape=tableRow;horizontal=0;startSize=0;swimlaneHead=0;swimlaneBody=0;fillColor=none;collapsible=0;dropTarget=0;points=[[0,0.5],[1,0.5]];portConstraint=eastwest;top=0;left=0;right=0;bottom=0;" vertex="1" parent="qb2vWf6YupKcYmzAb9Nw-92">
          <mxGeometry y="150" width="180" height="30" as="geometry" />
        </mxCell>
        <mxCell id="qb2vWf6YupKcYmzAb9Nw-106" value="FK2" style="shape=partialRectangle;connectable=0;fillColor=none;top=0;left=0;bottom=0;right=0;editable=1;overflow=hidden;whiteSpace=wrap;html=1;" vertex="1" parent="qb2vWf6YupKcYmzAb9Nw-105">
          <mxGeometry width="30" height="30" as="geometry">
            <mxRectangle width="30" height="30" as="alternateBounds" />
          </mxGeometry>
        </mxCell>
        <mxCell id="qb2vWf6YupKcYmzAb9Nw-107" value="idAsignatura" style="shape=partialRectangle;connectable=0;fillColor=none;top=0;left=0;bottom=0;right=0;align=left;spacingLeft=6;overflow=hidden;whiteSpace=wrap;html=1;" vertex="1" parent="qb2vWf6YupKcYmzAb9Nw-105">
          <mxGeometry x="30" width="150" height="30" as="geometry">
            <mxRectangle width="150" height="30" as="alternateBounds" />
          </mxGeometry>
        </mxCell>
        <mxCell id="qb2vWf6YupKcYmzAb9Nw-123" style="edgeStyle=orthogonalEdgeStyle;rounded=0;orthogonalLoop=1;jettySize=auto;html=1;entryX=0;entryY=0.5;entryDx=0;entryDy=0;" edge="1" parent="1" source="qb2vWf6YupKcYmzAb9Nw-120" target="qb2vWf6YupKcYmzAb9Nw-48">
          <mxGeometry relative="1" as="geometry" />
        </mxCell>
        <mxCell id="qb2vWf6YupKcYmzAb9Nw-124" style="edgeStyle=orthogonalEdgeStyle;rounded=0;orthogonalLoop=1;jettySize=auto;html=1;entryX=1;entryY=0.5;entryDx=0;entryDy=0;" edge="1" parent="1" source="qb2vWf6YupKcYmzAb9Nw-108" target="qb2vWf6YupKcYmzAb9Nw-38">
          <mxGeometry relative="1" as="geometry" />
        </mxCell>
        <mxCell id="qb2vWf6YupKcYmzAb9Nw-125" style="edgeStyle=orthogonalEdgeStyle;rounded=0;orthogonalLoop=1;jettySize=auto;html=1;entryX=0;entryY=0.5;entryDx=0;entryDy=0;" edge="1" parent="1" source="qb2vWf6YupKcYmzAb9Nw-111" target="qb2vWf6YupKcYmzAb9Nw-38">
          <mxGeometry relative="1" as="geometry" />
        </mxCell>
        <mxCell id="qb2vWf6YupKcYmzAb9Nw-126" style="edgeStyle=orthogonalEdgeStyle;rounded=0;orthogonalLoop=1;jettySize=auto;html=1;entryX=0;entryY=0.5;entryDx=0;entryDy=0;" edge="1" parent="1" source="qb2vWf6YupKcYmzAb9Nw-102" target="wzYJ2r0seQuiLL_xnfaj-2">
          <mxGeometry relative="1" as="geometry" />
        </mxCell>
        <mxCell id="qb2vWf6YupKcYmzAb9Nw-127" style="edgeStyle=orthogonalEdgeStyle;rounded=0;orthogonalLoop=1;jettySize=auto;html=1;entryX=1;entryY=0.5;entryDx=0;entryDy=0;" edge="1" parent="1" source="qb2vWf6YupKcYmzAb9Nw-105" target="wzYJ2r0seQuiLL_xnfaj-15">
          <mxGeometry relative="1" as="geometry" />
        </mxCell>
        <mxCell id="qb2vWf6YupKcYmzAb9Nw-128" style="edgeStyle=orthogonalEdgeStyle;rounded=0;orthogonalLoop=1;jettySize=auto;html=1;entryX=1;entryY=0.5;entryDx=0;entryDy=0;" edge="1" parent="1" source="qb2vWf6YupKcYmzAb9Nw-114" target="qb2vWf6YupKcYmzAb9Nw-93">
          <mxGeometry relative="1" as="geometry" />
        </mxCell>
      </root>
    </mxGraphModel>
  </diagram>
</mxfile>
